<?xml version="1.0" encoding="UTF-8" standalone="no"?>
<!DOCTYPE svg PUBLIC "-//W3C//DTD SVG 1.1//EN" "http://www.w3.org/Graphics/SVG/1.1/DTD/svg11.dtd">
<svg width="100%" height="100%" viewBox="0 0 214 214" version="1.1" xmlns="http://www.w3.org/2000/svg" xmlns:xlink="http://www.w3.org/1999/xlink" xml:space="preserve" xmlns:serif="http://www.serif.com/" style="fill-rule:evenodd;clip-rule:evenodd;stroke-linecap:round;stroke-linejoin:round;stroke-miterlimit:1.5;">
    <g transform="matrix(1,0,0,1,-279.811,-293.209)">
        <g transform="matrix(0.596869,0,0,0.596869,4.60567,161.253)">
            <g transform="matrix(1,0,0,1,123.304,-110.487)">
                <circle cx="516.696" cy="510.487" r="173.893" style="fill:none;stroke:white;stroke-width:10.05px;"/>
            </g>
        </g>
        <g transform="matrix(0.596869,0,0,0.596869,4.60567,161.253)">
            <g transform="matrix(0.814601,0,0,0.769228,105.747,101.179)">
                <path d="M706.165,301.541C706.34,300.537 707.149,299.797 708.112,299.76C708.113,299.76 708.113,299.76 708.113,299.76C708.113,299.76 751.428,297.527 783.428,276.5C796.722,267.764 801.172,277.254 778.762,294.145C761.894,306.858 738.983,320.781 728.183,322.919C728.183,322.919 704.374,459.937 698.622,493.042C697.903,497.176 694.5,500.177 690.531,500.177C686.41,500.177 681.251,500.177 677.48,500.177C674.334,500.177 671.463,498.277 670.085,495.282C657.936,468.882 600.782,344.682 600.782,344.682L574.181,498.046C573.353,509.206 562.761,518.045 549.834,518.045C536.368,518.045 525.435,508.452 525.435,496.636C525.435,484.821 536.368,475.228 549.834,475.228C550.606,475.228 551.369,475.26 552.123,475.321C552.123,475.321 575.662,339.858 581.378,306.958C582.097,302.824 585.5,299.823 589.469,299.823C593.588,299.823 598.744,299.823 602.514,299.823C605.664,299.823 608.537,301.727 609.913,304.726C622.071,331.212 679.355,456.006 679.355,456.006C679.355,456.006 703.214,318.544 706.165,301.541Z" style="fill:white;"/>
            </g>
        </g>
    </g>
</svg>
