<?xml version="1.0" encoding="UTF-8" standalone="no"?>
<!DOCTYPE svg PUBLIC "-//W3C//DTD SVG 1.1//EN" "http://www.w3.org/Graphics/SVG/1.1/DTD/svg11.dtd">
<svg width="100%" height="100%" viewBox="0 0 348 348" version="1.1" xmlns="http://www.w3.org/2000/svg" xmlns:xlink="http://www.w3.org/1999/xlink" xml:space="preserve" xmlns:serif="http://www.serif.com/" style="fill-rule:evenodd;clip-rule:evenodd;stroke-linejoin:round;stroke-miterlimit:1.41421;">
    <g transform="matrix(1,0,0,1,-466.107,-226.107)">
        <path d="M640,226.107C735.974,226.107 813.893,304.026 813.893,400C813.893,495.974 735.974,573.893 640,573.893C544.026,573.893 466.107,495.974 466.107,400C466.107,304.026 544.026,226.107 640,226.107ZM680.888,336.523C681.002,335.865 681.561,335.376 682.229,335.351C682.23,335.351 682.23,335.351 682.23,335.351C682.23,335.351 712.347,333.798 734.597,319.178C743.84,313.104 746.934,319.703 731.352,331.446C719.624,340.286 703.694,349.966 696.185,351.453C696.185,351.453 678.759,451.739 675.345,471.384C675.012,473.3 673.349,474.699 671.404,474.699C668.047,474.699 662.962,474.699 659.919,474.699C658.357,474.699 656.938,473.79 656.285,472.371C649.049,456.647 607.605,366.585 607.605,366.585L589.109,473.217C588.533,480.976 582.044,483.232 567.181,483.122C555.135,483.032 549.967,478.102 550.216,468.237C550.423,460.024 562.818,457.352 572.181,457.352C572.717,457.352 573.248,457.374 573.772,457.417C573.772,457.417 591.006,358.238 594.399,338.71C594.732,336.793 596.395,335.394 598.34,335.394C601.697,335.394 606.78,335.394 609.823,335.394C611.386,335.394 612.806,336.305 613.459,337.726C620.699,353.5 662.236,443.987 662.236,443.987C662.236,443.987 678.887,348.052 680.888,336.523Z" style="fill:white;"/>
    </g>
</svg>
